<?xml version="1.0" standalone="no"?>
<!DOCTYPE svg PUBLIC "-//W3C//DTD SVG 20010904//EN"
 "http://www.w3.org/TR/2001/REC-SVG-20010904/DTD/svg10.dtd">
<svg version="1.0" xmlns="http://www.w3.org/2000/svg"
 width="1000.000000pt" height="1000.000000pt" viewBox="0 0 1000.000000 1000.000000"
 preserveAspectRatio="xMidYMid meet">
<metadata>
Created by potrace 1.11, written by Peter Selinger 2001-2013
</metadata>
<g transform="translate(0.000000,1000.000000) scale(0.100000,-0.100000)"
fill="#000000" stroke="none">
<path d="M4975 9573 c-699 -43 -1284 -194 -1859 -480 -466 -232 -815 -483
-1186 -852 -96 -95 -125 -127 -65 -70 594 562 1207 909 2008 1139 353 101 753
153 1177 154 428 0 831 -49 987 -121 30 -14 37 -12 146 31 63 25 120 46 127
46 9 0 10 3 5 9 -16 16 -399 89 -575 110 -283 35 -560 47 -765 34z"/>
<path d="M6558 9240 c-524 -110 -947 -488 -1400 -1250 -149 -249 -299 -562
-594 -1235 -146 -335 -267 -611 -268 -611 0 -1 -70 10 -155 23 -85 13 -307 41
-494 61 l-340 37 -27 80 c-65 194 -164 322 -332 429 -274 174 -718 187 -1197
34 -263 -84 -507 -224 -736 -424 -204 -178 -411 -473 -528 -755 -157 -374
-221 -765 -188 -1139 24 -265 77 -464 180 -675 137 -279 356 -507 615 -639
181 -92 356 -135 591 -143 599 -20 1149 241 1627 772 188 208 364 458 562 795
112 191 399 763 515 1025 47 106 85 181 94 183 9 2 199 -28 424 -67 224 -38
487 -82 583 -96 96 -14 187 -29 201 -33 l26 -7 -53 -195 c-163 -594 -365
-1439 -439 -1835 -116 -616 -151 -962 -142 -1400 8 -342 32 -522 99 -725 106
-324 333 -620 629 -818 413 -277 960 -343 1443 -175 130 45 187 75 220 113 46
56 31 131 -34 165 -39 20 -83 19 -203 -6 -234 -48 -419 4 -599 170 -148 137
-264 346 -341 616 -53 185 -53 181 -20 189 15 4 48 20 73 36 25 15 56 31 70
35 14 4 61 27 105 51 l81 43 124 -10 c167 -15 524 -6 675 15 66 10 165 29 220
43 55 13 119 29 141 33 87 18 425 157 474 195 8 7 44 29 80 50 36 21 81 51
100 67 19 15 38 28 43 28 28 0 291 249 419 397 59 68 172 225 203 282 11 20
43 74 72 121 74 122 214 434 270 600 8 25 18 54 23 65 9 19 36 113 78 265 11
41 28 109 37 150 9 41 21 93 26 115 5 22 20 112 34 200 14 88 30 185 35 215
32 179 65 810 41 796 -6 -4 -11 -13 -11 -19 0 -33 -116 -232 -178 -306 -110
-132 -183 -203 -342 -329 -117 -93 -402 -253 -635 -356 -142 -63 -297 -126
-307 -126 -6 0 -36 -11 -67 -24 -31 -13 -65 -27 -76 -31 -11 -4 -54 -20 -95
-35 -41 -16 -118 -44 -170 -63 -52 -19 -108 -40 -125 -47 -40 -17 -62 -25
-110 -40 -22 -7 -68 -25 -102 -41 -34 -16 -67 -29 -74 -29 -6 0 -44 -16 -85
-35 -41 -20 -97 -44 -124 -55 -27 -11 -67 -30 -87 -43 -21 -13 -63 -36 -93
-51 -30 -16 -66 -39 -81 -52 -14 -13 -29 -24 -35 -24 -13 0 -162 -140 -177
-166 -7 -12 -35 -55 -62 -95 -61 -88 -74 -116 -113 -234 -41 -125 -80 -295
-88 -390 -22 -257 8 -765 45 -765 16 0 96 31 156 59 33 16 76 36 95 45 19 9
58 30 85 46 28 16 56 29 63 30 6 0 65 32 130 71 64 40 130 79 146 88 28 16
192 124 291 192 113 77 370 280 453 358 26 24 56 50 67 57 35 25 119 105 302
285 222 221 352 359 431 462 15 19 35 40 45 46 26 17 23 -18 -6 -60 -219 -322
-344 -475 -571 -702 -168 -168 -240 -236 -326 -307 -23 -19 -47 -39 -53 -45
-34 -29 -158 -124 -194 -149 -24 -16 -43 -32 -43 -36 0 -3 -18 -16 -40 -29
-21 -12 -50 -31 -62 -41 -31 -27 -172 -121 -218 -145 -20 -11 -52 -32 -71 -46
-19 -14 -63 -41 -99 -61 -36 -19 -117 -64 -180 -99 -101 -57 -315 -165 -435
-219 -22 -10 -70 -32 -106 -49 -37 -17 -85 -37 -107 -45 -46 -17 -40 -26 -61
99 -40 236 -55 702 -31 942 49 485 180 1129 420 2068 144 565 130 520 165 519
17 0 122 -6 235 -14 234 -15 490 -9 624 15 245 43 403 141 456 282 36 95 23
158 -39 200 -40 27 -107 31 -151 8 -34 -18 -76 -70 -85 -106 -5 -21 -21 -34
-73 -57 -85 -39 -192 -52 -412 -52 -156 0 -500 17 -508 24 -2 2 27 118 63 257
338 1287 453 1861 472 2339 10 268 -17 437 -94 599 -71 148 -165 231 -312 275
-75 22 -259 20 -373 -4z m-263 -510 c32 -30 45 -91 45 -207 0 -231 -121 -956
-246 -1473 -75 -310 -286 -1135 -293 -1142 -3 -3 -31 -2 -61 3 -462 76 -1047
170 -1088 175 -29 4 -54 10 -57 13 -5 9 170 416 290 676 112 244 380 775 490
975 158 284 293 499 419 665 73 97 236 267 284 297 85 53 172 60 217 18z
m-3570 -2167 c70 -36 178 -145 225 -225 16 -29 30 -56 30 -59 0 -3 -51 -9
-112 -12 -126 -7 -213 -26 -305 -67 -350 -157 -541 -491 -422 -737 37 -77 122
-129 259 -159 88 -20 172 -11 298 32 297 101 495 293 572 554 13 41 24 76 25
77 6 9 855 -105 867 -116 17 -15 -342 -746 -510 -1041 -338 -589 -674 -1001
-993 -1215 -174 -117 -331 -173 -514 -182 -183 -9 -302 28 -428 132 -232 192
-349 526 -387 1101 -22 339 34 741 147 1044 173 464 484 790 838 879 119 29
121 29 240 27 101 -2 115 -4 170 -33z"/>
<path d="M6032 8324 c-51 -65 -63 -96 -41 -110 12 -7 6 -194 -16 -489 -4 -49
-5 -88 -2 -85 11 10 122 738 115 746 -2 2 -27 -26 -56 -62z"/>
<path d="M1857 5752 c-86 -192 -79 -388 20 -507 79 -96 196 -153 327 -160 l91
-5 -60 18 c-72 22 -93 33 -163 84 -56 41 -122 119 -151 177 -24 46 -61 206
-61 259 0 22 7 73 15 113 9 40 14 74 12 76 -2 2 -16 -23 -30 -55z"/>
<path d="M7520 8923 c1 -5 11 -51 24 -103 l23 -95 119 -84 c792 -556 1373
-1333 1674 -2239 89 -267 167 -599 156 -659 -6 -29 0 -29 40 2 17 13 50 27 73
31 23 4 44 10 46 14 8 13 -33 220 -75 388 -242 946 -778 1772 -1556 2398 -115
92 -496 354 -515 354 -5 0 -9 -3 -9 -7z"/>
<path d="M893 6648 c-5 -7 -14 -26 -21 -41 -11 -25 -10 -27 6 -18 27 15 48 41
32 41 -7 0 -10 7 -6 15 7 18 2 19 -11 3z"/>
<path d="M9416 5516 c-19 -30 -39 -57 -45 -60 -6 -4 -11 -14 -11 -22 0 -9 -13
-34 -28 -57 -45 -66 -47 -74 -13 -42 18 16 47 59 65 95 18 36 43 82 55 103 35
57 16 44 -23 -17z"/>
<path d="M1200 2863 c0 -5 24 -43 52 -86 44 -65 56 -77 73 -71 11 3 61 10 110
15 210 21 442 53 452 63 4 3 -63 6 -148 6 -164 0 -268 13 -434 55 -115 29
-105 27 -105 18z"/>
<path d="M4851 2734 c0 -11 3 -14 6 -6 3 7 2 16 -1 19 -3 4 -6 -2 -5 -13z"/>
<path d="M4831 2558 c-6 -51 -21 -154 -33 -228 -19 -114 -22 -178 -22 -405 0
-170 5 -305 13 -365 7 -52 15 -108 17 -125 7 -49 75 -277 95 -317 11 -21 17
-38 14 -38 -6 0 40 -90 90 -175 53 -91 76 -135 70 -135 -4 0 1 -10 9 -22 20
-28 20 -57 1 -84 -8 -12 -11 -24 -8 -28 4 -4 -4 -10 -17 -13 -22 -6 -23 -7 -4
-14 19 -7 394 -13 394 -5 0 2 -34 39 -75 82 -131 137 -250 303 -330 462 -152
302 -230 792 -206 1302 6 107 8 196 7 198 -2 1 -8 -39 -15 -90z"/>
<path d="M8442 1978 c-15 -15 -90 -58 -181 -103 -41 -20 -86 -45 -100 -55 -14
-11 -55 -26 -91 -35 -63 -16 -155 -58 -115 -53 15 2 19 -2 17 -16 -2 -12 1
-16 10 -10 7 4 5 -2 -4 -13 -10 -11 -18 -23 -18 -27 0 -5 -19 -26 -41 -47 -23
-22 -39 -39 -36 -39 12 0 -90 -93 -145 -132 -32 -23 -58 -45 -58 -50 0 -5 -4
-6 -10 -3 -5 3 -10 2 -10 -3 0 -33 -530 -335 -688 -393 -23 -8 -30 -15 -23
-22 27 -27 486 208 766 390 195 128 351 248 560 434 136 121 204 189 189 189
-5 0 -15 -5 -22 -12z"/>
<path d="M7320 1609 c-25 -4 -187 -7 -360 -7 -256 1 -320 -1 -340 -13 -23 -13
-12 -15 120 -21 226 -11 496 6 640 41 46 12 3 12 -60 0z"/>
</g>
</svg>
